#define e9cfa309782845308fa7ceabda68b48eBGZNEtsMAb5P5POg_width 32
#define e9cfa309782845308fa7ceabda68b48eBGZNEtsMAb5P5POg_height 28
static char e9cfa309782845308fa7ceabda68b48eBGZNEtsMAb5P5POg_bits[] = {
  0x00, 0x00, 0x00, 0x00, 0x00, 0x00, 0x00, 0x00, 0x00, 0x00, 0x00, 0x00, 
  0x00, 0x00, 0x00, 0x00, 0x00, 0x80, 0x07, 0x00, 0x00, 0xE0, 0x0C, 0x00, 
  0x00, 0x30, 0x10, 0x00, 0x00, 0x18, 0x20, 0x00, 0x00, 0x08, 0x20, 0x00, 
  0x00, 0x08, 0x20, 0x00, 0x00, 0xF8, 0x7C, 0x00, 0x00, 0x8E, 0xE3, 0x00, 
  0x00, 0x92, 0xB3, 0x01, 0x00, 0xB1, 0x16, 0x03, 0x00, 0xC1, 0x0F, 0x02, 
  0x00, 0xC1, 0x05, 0x02, 0x00, 0xC1, 0x04, 0x02, 0x00, 0x81, 0x06, 0x03, 
  0x00, 0x83, 0x03, 0x01, 0x00, 0x06, 0xC3, 0x00, 0x00, 0xFC, 0x7C, 0x00, 
  0x00, 0x00, 0x00, 0x00, 0x00, 0x00, 0x00, 0x00, 0x00, 0x00, 0x00, 0x00, 
  0x00, 0x00, 0x00, 0x00, 0x00, 0x00, 0x00, 0x00, 0x00, 0x00, 0x00, 0x00, 
  0x00, 0x00, 0x00, 0x00, };
